<svg viewBox="0 0 17 14" fill="none" xmlns="http://www.w3.org/2000/svg">
<path d="M1.14546 6.01822C6.37675 3.74158 13.146 0.965922 14.0807 0.581668C16.5317 -0.423758 17.2839 -0.231261 16.9089 1.99578C16.6395 3.59646 15.8627 8.89531 15.243 12.1937C14.8755 14.1497 14.0508 14.3815 12.7546 13.5352C12.1312 13.128 8.98416 11.069 8.30087 10.5856C7.67746 10.1451 6.81755 9.61495 7.89599 8.57103C8.27992 8.19936 10.7953 5.82276 12.7553 3.97331C13.012 3.73047 12.6895 3.33141 12.3931 3.52613C9.75127 5.25934 6.08861 7.66481 5.62236 7.97799C4.91812 8.45109 4.24157 8.66802 3.02767 8.323C2.11014 8.06239 1.21431 7.75143 0.865557 7.63298C-0.477815 7.17691 -0.158997 6.58609 1.14546 6.01822Z"/>
</svg>
