<svg viewBox="0 0 59 59" fill="none" xmlns="http://www.w3.org/2000/svg">
<path d="M29.6054 16.0128C22.2454 16.0128 16.2721 21.9862 16.2721 29.3462C16.2721 36.7062 22.2454 42.6795 29.6054 42.6795C36.9654 42.6795 42.9388 36.7062 42.9388 29.3462C42.9388 21.9862 36.9654 16.0128 29.6054 16.0128ZM2.93876 32.0128H8.27209C9.73876 32.0128 10.9388 30.8128 10.9388 29.3462C10.9388 27.8795 9.73876 26.6795 8.27209 26.6795H2.93876C1.47209 26.6795 0.272095 27.8795 0.272095 29.3462C0.272095 30.8128 1.47209 32.0128 2.93876 32.0128ZM50.9388 32.0128H56.2721C57.7388 32.0128 58.9388 30.8128 58.9388 29.3462C58.9388 27.8795 57.7388 26.6795 56.2721 26.6795H50.9388C49.4721 26.6795 48.2721 27.8795 48.2721 29.3462C48.2721 30.8128 49.4721 32.0128 50.9388 32.0128ZM26.9388 2.67948V8.01282C26.9388 9.47948 28.1388 10.6795 29.6054 10.6795C31.0721 10.6795 32.2721 9.47948 32.2721 8.01282V2.67948C32.2721 1.21282 31.0721 0.0128174 29.6054 0.0128174C28.1388 0.0128174 26.9388 1.21282 26.9388 2.67948ZM26.9388 50.6795V56.0128C26.9388 57.4795 28.1388 58.6795 29.6054 58.6795C31.0721 58.6795 32.2721 57.4795 32.2721 56.0128V50.6795C32.2721 49.2128 31.0721 48.0128 29.6054 48.0128C28.1388 48.0128 26.9388 49.2128 26.9388 50.6795ZM13.5788 9.55948C12.5388 8.51948 10.8321 8.51948 9.81876 9.55948C8.77876 10.5995 8.77876 12.3062 9.81876 13.3195L12.6454 16.1462C13.6854 17.1862 15.3921 17.1862 16.4054 16.1462C17.4188 15.1062 17.4454 13.3995 16.4054 12.3862L13.5788 9.55948ZM46.5654 42.5462C45.5254 41.5062 43.8188 41.5062 42.8054 42.5462C41.7654 43.5862 41.7654 45.2928 42.8054 46.3062L45.6321 49.1328C46.6721 50.1728 48.3788 50.1728 49.3921 49.1328C50.4321 48.0928 50.4321 46.3862 49.3921 45.3728L46.5654 42.5462ZM49.3921 13.3195C50.4321 12.2795 50.4321 10.5728 49.3921 9.55948C48.3521 8.51948 46.6454 8.51948 45.6321 9.55948L42.8054 12.3862C41.7654 13.4262 41.7654 15.1328 42.8054 16.1462C43.8454 17.1595 45.5521 17.1862 46.5654 16.1462L49.3921 13.3195ZM16.4054 46.3062C17.4454 45.2662 17.4454 43.5595 16.4054 42.5462C15.3654 41.5062 13.6588 41.5062 12.6454 42.5462L9.81876 45.3728C8.77876 46.4128 8.77876 48.1195 9.81876 49.1328C10.8588 50.1462 12.5654 50.1728 13.5788 49.1328L16.4054 46.3062Z"/>
</svg>
