<svg viewBox="0 0 44 50" fill="none" xmlns="http://www.w3.org/2000/svg">
<path d="M22 7.33329V1.29301C22 0.509957 21.1408 0.0307251 20.4745 0.442215L6.34566 9.16886C5.72077 9.55482 5.71126 10.4602 6.3279 10.8592L20.4568 20.0014C21.1221 20.432 22 19.9544 22 19.1619V12.6666C30.8267 12.6666 38 19.84 38 28.6666C38 37.4933 30.8267 44.6666 22 44.6666C13.5092 44.6666 6.54835 38.0288 6.03088 29.6668C5.99677 29.1156 5.55231 28.6666 5.00002 28.6666H1.66669C1.1144 28.6666 0.66426 29.1152 0.689694 29.6669C1.21163 40.9887 10.5486 50 22 50C33.7867 50 43.3334 40.4533 43.3334 28.6666C43.3334 16.88 33.7867 7.33329 22 7.33329Z"/>
</svg>
